<svg xmlns="http://www.w3.org/2000/svg" xmlns:xlink="http://www.w3.org/1999/xlink" width="217.104" height="210.727" viewBox="0 0 217.104 210.727"><defs><linearGradient id="a" y1="0.5" x2="1" y2="0.5" gradientUnits="objectBoundingBox"><stop offset="0" stop-color="#d500f9"/><stop offset="0.99" stop-color="#2979ff"/></linearGradient><linearGradient id="d" y1="0.5" x2="1" y2="0.5" gradientUnits="objectBoundingBox"><stop offset="0" stop-color="#ea80fc"/><stop offset="0.99" stop-color="#40c4ff"/></linearGradient></defs><g transform="translate(168.167 -331.806)"><g transform="translate(-168.167 331.806)"><g style="isolation:isolate"><g transform="translate(119.605 61.873)"><path d="M-16.173,482.207l-36.6.306-22.125-102.15,36.6-.307Z" transform="translate(74.894 -380.057)" fill="url(#a)"/></g><g transform="translate(0 0.001)"><path d="M-131.571,482.145l-36.6.306L-33.223,332.113l36.6-.306Z" transform="translate(168.167 -331.806)" fill="url(#a)"/></g><g transform="translate(0 150.339)"><path d="M48.937,509.128l-36.6.307-180.508-60.081,36.6-.306Z" transform="translate(168.167 -449.047)" fill="url(#a)"/></g><g transform="translate(36.596)"><path d="M-4.683,331.806,40.88,542.226l-180.508-60.08ZM-85.523,466.659,2.1,495.829l-22.125-102.15-65.5,72.98" transform="translate(139.628 -331.806)" fill="url(#d)"/></g></g></g><g transform="translate(-168.167 482.145)" opacity="0.74" style="mix-blend-mode:multiply;isolation:isolate"><path d="M48.937,509.128l-36.6.307-180.508-60.081,36.6-.306Z" transform="translate(168.167 -449.047)" fill="url(#a)"/></g></g></svg>